Normalized EMG Linear Envelopes
nRows=21
nColumns=17

endheader
time	        VM	        VL	        RF	       GRA	        TA	   ADDLONG	   SEMIMEM	      BFLH	        GM	        GL	       TFL	   GLUTMAX	   GLUTMED	      PIRI	    OBTINT	        QF	
2.6665	  0.485038	  0.441097	  0.081732	  0.385514	  0.428871	  0.010545	  0.415735	  0.618296	  0.558331	  0.320711	  0.234547	  0.818160	  0.194412	  0.163420	  0.047165	  0.068291	
2.667	  0.489124	  0.445157	  0.082590	  0.382293	  0.424051	  0.010816	  0.414133	  0.617868	  0.561567	  0.323352	  0.235264	  0.823406	  0.193398	  0.164505	  0.047548	  0.068562	
2.6675	  0.493165	  0.449209	  0.083453	  0.379069	  0.419230	  0.011110	  0.412570	  0.617473	  0.564817	  0.326015	  0.236021	  0.828643	  0.192428	  0.165596	  0.047937	  0.068839	
2.668	  0.497161	  0.453253	  0.084322	  0.375843	  0.414411	  0.011430	  0.411045	  0.617112	  0.568080	  0.328696	  0.236818	  0.833867	  0.191502	  0.166694	  0.048331	  0.069119	
2.6685	  0.501111	  0.457286	  0.085194	  0.372617	  0.409595	  0.011775	  0.409560	  0.616786	  0.571355	  0.331397	  0.237652	  0.839075	  0.190621	  0.167799	  0.048730	  0.069403	
2.669	  0.505013	  0.461310	  0.086071	  0.369393	  0.404786	  0.012145	  0.408116	  0.616494	  0.574640	  0.334116	  0.238523	  0.844263	  0.189786	  0.168909	  0.049134	  0.069691	
2.6695	  0.508867	  0.465322	  0.086952	  0.366173	  0.399986	  0.012542	  0.406712	  0.616235	  0.577935	  0.336852	  0.239428	  0.849429	  0.188996	  0.170027	  0.049543	  0.069982	
2.67	  0.512670	  0.469322	  0.087837	  0.362960	  0.395198	  0.012965	  0.405351	  0.616011	  0.581239	  0.339604	  0.240368	  0.854569	  0.188253	  0.171151	  0.049955	  0.070278	
2.6705	  0.516422	  0.473309	  0.088726	  0.359755	  0.390424	  0.013416	  0.404031	  0.615821	  0.584550	  0.342372	  0.241339	  0.859679	  0.187557	  0.172281	  0.050372	  0.070576	
2.671	  0.520120	  0.477282	  0.089617	  0.356560	  0.385666	  0.013893	  0.402755	  0.615666	  0.587867	  0.345155	  0.242342	  0.864755	  0.186908	  0.173417	  0.050792	  0.070878	
2.6715	  0.523764	  0.481240	  0.090512	  0.353376	  0.380928	  0.014399	  0.401521	  0.615546	  0.591191	  0.347951	  0.243375	  0.869794	  0.186307	  0.174559	  0.051216	  0.071183	
2.672	  0.527351	  0.485181	  0.091410	  0.350204	  0.376210	  0.014933	  0.400331	  0.615461	  0.594518	  0.350758	  0.244438	  0.874792	  0.185754	  0.175707	  0.051643	  0.071491	
2.6725	  0.530880	  0.489104	  0.092311	  0.347048	  0.371516	  0.015497	  0.399184	  0.615410	  0.597849	  0.353577	  0.245530	  0.879743	  0.185248	  0.176861	  0.052073	  0.071802	
2.673	  0.534349	  0.493008	  0.093213	  0.343907	  0.366848	  0.016089	  0.398082	  0.615395	  0.601183	  0.356406	  0.246651	  0.884646	  0.184792	  0.178020	  0.052505	  0.072115	
2.6735	  0.537757	  0.496890	  0.094118	  0.340783	  0.362207	  0.016712	  0.397024	  0.615414	  0.604517	  0.359243	  0.247800	  0.889495	  0.184383	  0.179184	  0.052940	  0.072431	
2.674	  0.541102	  0.500749	  0.095024	  0.337677	  0.357595	  0.017364	  0.396011	  0.615469	  0.607851	  0.362088	  0.248980	  0.894288	  0.184024	  0.180352	  0.053376	  0.072749	
2.6745	  0.544383	  0.504584	  0.095932	  0.334591	  0.353015	  0.018048	  0.395043	  0.615557	  0.611184	  0.364938	  0.250188	  0.899019	  0.183714	  0.181524	  0.053815	  0.073068	
2.675	  0.547598	  0.508392	  0.096840	  0.331525	  0.348469	  0.018763	  0.394120	  0.615679	  0.614514	  0.367794	  0.251428	  0.903684	  0.183454	  0.182700	  0.054254	  0.073390	
2.6755	  0.550747	  0.512170	  0.097749	  0.328480	  0.343957	  0.019509	  0.393242	  0.615834	  0.617841	  0.370653	  0.252699	  0.908279	  0.183243	  0.183880	  0.054695	  0.073713	
2.676	  0.553827	  0.515918	  0.098658	  0.325458	  0.339482	  0.020288	  0.392409	  0.616021	  0.621163	  0.373515	  0.254003	  0.912798	  0.183081	  0.185062	  0.055137	  0.074037	
2.6765	  0.556837	  0.519633	  0.099567	  0.322459	  0.335045	  0.021099	  0.391620	  0.616240	  0.624479	  0.376378	  0.255340	  0.917239	  0.182970	  0.186246	  0.055578	  0.074361	
